<svg width="56" height="56" viewBox="0 0 56 56" fill="none" xmlns="http://www.w3.org/2000/svg">
<g clip-path="url(#clip0_73_1011)">
<path fill-rule="evenodd" clip-rule="evenodd" d="M0.856004 33.5186L3.53744 33.4412L2.844 32.8672C2.51632 32.5968 2.86413 32.3575 3.6175 32.3352L16.3431 31.9681C17.096 31.9462 17.9806 32.1505 18.3079 32.4213L19.0013 32.9949L34.5286 32.5473C35.1424 32.5298 35.8639 32.6961 36.1312 32.9175L44.9044 37.9085C45.1721 38.1294 44.8878 38.325 44.2739 38.342L11.097 41.4667C10.4823 41.4837 9.76088 41.3175 9.49357 41.0965L0.225566 33.953C-0.0417461 33.7317 0.242629 33.5365 0.856004 33.5186Z" fill="#EEEEEF"/>
<path fill-rule="evenodd" clip-rule="evenodd" d="M11.0503 9.70287L13.8301 9.48456L13.8699 7.86625L13.8809 7.72406L13.9058 7.58493L13.9439 7.44931L13.9951 7.31806L14.0581 7.19162L14.132 7.07175L14.2164 6.958L14.3105 6.85212L14.4138 6.75412L14.5253 6.66531L14.6439 6.58612L14.7694 6.51787L14.9007 6.461L15.0372 6.41593L15.1785 6.384L15.3229 6.36518L28.5179 5.33006L28.6623 5.32568L28.8023 5.33575L28.9374 5.35937L29.0665 5.39656L29.1886 5.44512L29.3045 5.50593L29.4121 5.57725L29.5106 5.65906L30.3182 6.46625L30.2193 6.38443L30.1121 6.31268L29.9966 6.25231L29.8741 6.20331L29.7446 6.16656L29.6099 6.14293L29.4694 6.13287L29.3255 6.13681L16.1305 7.17193L15.9857 7.19031L15.8444 7.22225L15.7079 7.26731L15.5766 7.32462L15.4519 7.39375L15.3329 7.4725L15.2218 7.56131L15.1186 7.65887L15.0245 7.76518L14.9401 7.8785L14.8661 7.99881L14.8031 8.12481L14.7519 8.25606L14.7134 8.39168L14.6885 8.53125L14.6776 8.67343L14.6378 10.2922L11.8579 10.5101L11.6247 10.5516L11.4059 10.6347L11.2069 10.7551L11.0319 10.9069L10.8862 11.0858L10.7742 11.2866L10.7011 11.5045L10.6723 11.7342L9.96832 40.4215L9.98626 40.6477L10.0488 40.8551L10.1512 41.0392L10.289 41.1963L9.48138 40.3891L9.34444 40.2325L9.24207 40.0483L9.17907 39.8409L9.16113 39.6147L9.86507 10.9274L9.89438 10.6977L9.96745 10.4799L10.0794 10.2791L10.2256 10.1001L10.4006 9.94831L10.5996 9.828L10.8179 9.74443L11.0503 9.70287ZM45.9645 6.96368L29.8645 8.22675L30.6721 9.03393L46.7721 7.77087L47.004 7.77612L47.2188 7.82512L47.4131 7.91437L47.5815 8.0395L46.7739 7.23231L46.6054 7.10762L46.4116 7.01793L46.1968 6.96893L45.9645 6.96368Z" fill="#DDC383"/>
<path fill-rule="evenodd" clip-rule="evenodd" d="M11.4546 10.1067L14.2349 9.88836L14.2747 8.27004L14.2856 8.12786L14.3106 7.98873L14.3491 7.85311L14.4002 7.72186L14.4632 7.59586L14.5372 7.47554L14.6216 7.36223L14.7157 7.25636L14.8189 7.15879L14.9305 7.06954L15.0491 6.99079L15.1746 6.92211L15.3059 6.86523L15.4424 6.82017L15.5837 6.78779L15.7285 6.76942L28.9235 5.73386L29.0679 5.72992L29.2079 5.73954L29.3431 5.76317L29.4721 5.79992L29.5942 5.84892L29.7097 5.90929L29.8173 5.98104L29.9162 6.06286L30.32 6.46667L30.2211 6.38486L30.1139 6.31311L29.9984 6.25273L29.8759 6.20373L29.7464 6.16698L29.6117 6.14336L29.4712 6.13329L29.3273 6.13723L16.1323 7.17236L15.9875 7.19073L15.8462 7.22267L15.7097 7.26773L15.5784 7.32504L15.4524 7.39373L15.3334 7.47248L15.2223 7.56129L15.1191 7.65886L15.025 7.76517L14.9406 7.87848L14.8666 7.9988L14.8036 8.12479L14.7524 8.25604L14.7139 8.39167L14.689 8.53123L14.6781 8.67342L14.6382 10.2922L11.8584 10.51L11.6252 10.5516L11.4064 10.6347L11.2074 10.755L11.0324 10.9069L10.8867 11.0858L10.7747 11.2866L10.7016 11.5045L10.6727 11.7342L9.9688 40.4215L9.98674 40.6477L10.0493 40.855L10.1517 41.0392L10.2895 41.1963L9.88612 40.7925L9.7483 40.6359L9.64593 40.4517L9.58337 40.2447L9.56543 40.0185L10.2689 11.3312L10.2978 11.1015L10.3709 10.8837L10.4829 10.6829L10.6286 10.5039L10.8036 10.3521L11.0026 10.2318L11.2209 10.1482L11.4546 10.1067ZM46.3688 7.36748L30.2684 8.63054L30.6726 9.03392L46.7726 7.77086L47.0045 7.77611L47.2193 7.82511L47.4136 7.91436L47.582 8.03948L47.1782 7.63611L47.0097 7.51098L46.8159 7.42173L46.6007 7.37273L46.3688 7.36748Z" fill="#FDF5B7"/>
<path fill-rule="evenodd" clip-rule="evenodd" d="M11.8582 10.5101L14.6381 10.2922L14.6779 8.67346C14.6967 7.90915 15.3508 7.23409 16.1317 7.17284L29.3267 6.13771C30.1072 6.07646 30.7311 6.65177 30.7123 7.41565L30.6725 9.03396L46.7725 7.7709C47.409 7.72102 47.9178 8.19002 47.9025 8.81434L47.199 37.5016C47.1842 38.1251 46.6504 38.6759 46.013 38.7262L11.0996 41.4654C10.4621 41.5148 9.95377 41.0458 9.96909 40.4224L10.673 11.7351C10.6883 11.1103 11.2221 10.56 11.8582 10.5101Z" fill="#EABF3C"/>
<path fill-rule="evenodd" clip-rule="evenodd" d="M47.8474 11.0745L47.3255 32.3383L46.5073 36.628C46.3516 37.4124 45.7115 38.1041 45.0846 38.1649L11.0506 41.468C10.4363 41.4908 9.95421 41.0305 9.96909 40.4224L9.9914 39.501L13.7416 19.817C13.8978 19.0326 14.5375 18.3405 15.1644 18.2797L28.2426 17.0105L28.5768 15.327C28.8411 13.9908 29.9322 12.8131 30.9988 12.7094L47.8474 11.0745Z" fill="#D2A748"/>
<path fill-rule="evenodd" clip-rule="evenodd" d="M29.2995 7.24807C29.4544 7.23582 29.5817 7.35264 29.5773 7.50401L29.5436 8.91408C29.5392 9.06545 29.4067 9.20326 29.2509 9.21551L22.6543 9.73307L22.7024 7.76564L29.2995 7.24807Z" fill="#AB9BFA"/>
<path fill-rule="evenodd" clip-rule="evenodd" d="M22.654 9.73306L16.0556 10.2511C15.9016 10.2633 15.7743 10.1456 15.7774 9.99425L15.8124 8.58462C15.8155 8.43325 15.9498 8.29544 16.1042 8.28363L22.7021 7.76562L22.654 9.73306Z" fill="white"/>
<path fill-rule="evenodd" clip-rule="evenodd" d="M22.0616 9.17262L22.08 8.42188L16.4104 8.86594L16.3916 9.61756L22.0616 9.17262Z" fill="#2A2426"/>
<path fill-rule="evenodd" clip-rule="evenodd" d="M18.171 21.6221L31.457 20.5804L32.0673 19.1975L32.1679 18.9936L32.2848 18.7937L32.4173 18.599L32.5648 18.4109L32.7249 18.2298L32.8968 18.0578L33.0784 17.8951L33.2687 17.7433L33.466 17.6033L33.6686 17.4764L33.8751 17.3631L34.0846 17.2655L34.2951 17.1841L34.5059 17.1198L34.7146 17.0739L34.9194 17.0476L54.5513 15.5076L54.7784 15.5133L54.9687 15.5663L55.1205 15.6612L55.9277 16.4679L55.7759 16.373L55.5856 16.3205L55.3585 16.3153L35.7266 17.8553L35.5214 17.8811L35.3127 17.9266L35.1023 17.9909L34.8923 18.0723L34.6823 18.1703L34.4758 18.2836L34.2723 18.4104L34.0754 18.55L33.886 18.7018L33.704 18.8646L33.5321 19.0369L33.3724 19.2176L33.2249 19.4058L33.0915 19.6009L32.9751 19.8004L32.8745 20.0047L32.2646 21.3872L18.9778 22.4298L18.857 22.4451L18.7349 22.4718L18.6111 22.5094L18.4873 22.5575L18.3639 22.6148L18.2428 22.6813L18.1238 22.7557L18.0083 22.8379L17.8963 22.9272L17.7895 23.0226L17.6889 23.1241L17.5948 23.2299L17.5082 23.3406L17.4299 23.4548L17.3612 23.5725L17.3026 23.6919L10.0777 40.4198L9.9972 40.6529L9.96788 40.8673L9.98713 41.0581L10.0528 41.2204L10.1608 41.3503L9.35363 40.5431L9.24513 40.4132L9.18038 40.2509L9.16113 40.0601L9.19001 39.8458L9.27051 39.6121L16.4954 22.8852L16.554 22.7658L16.6231 22.6481L16.701 22.5339L16.7876 22.4228L16.8817 22.3169L16.9823 22.2158L17.0891 22.1204L17.2011 22.0308L17.317 21.9485L17.4356 21.8741L17.5572 21.8076L17.6801 21.7503L17.8039 21.7022L17.9278 21.665L18.0503 21.6379L18.171 21.6221Z" fill="#DDC383"/>
<path fill-rule="evenodd" clip-rule="evenodd" d="M18.5743 22.0264L31.8608 20.9838L32.4711 19.6009L32.5713 19.397L32.6881 19.1975L32.8211 19.0028L32.9685 18.8143L33.1286 18.6331L33.3006 18.4612L33.4821 18.2984L33.6725 18.1471L33.8698 18.0066L34.0723 17.8798L34.2784 17.7669L34.4884 17.6689L34.6988 17.5875L34.9093 17.5232L35.118 17.4773L35.3231 17.4514L54.9551 15.9114L55.1817 15.9171L55.3725 15.9696L55.5243 16.0646L55.9276 16.4679L55.7758 16.373L55.5855 16.3205L55.3585 16.3153L35.7265 17.8553L35.5213 17.8811L35.3126 17.9266L35.1022 17.9909L34.8922 18.0723L34.6822 18.1703L34.4757 18.2836L34.2723 18.4104L34.0754 18.55L33.886 18.7018L33.704 18.8646L33.532 19.0369L33.3723 19.2176L33.2249 19.4058L33.0915 19.6009L32.9751 19.8004L32.8745 20.0047L32.2646 21.3872L18.9777 22.4298L18.857 22.4451L18.7349 22.4718L18.6111 22.5094L18.4873 22.5575L18.3639 22.6148L18.2427 22.6813L18.1237 22.7557L18.0082 22.8379L17.8962 22.9272L17.7895 23.0226L17.6888 23.1241L17.5948 23.2299L17.5081 23.3406L17.4298 23.4548L17.3611 23.5725L17.3025 23.6919L10.0776 40.4198L9.99714 40.6529L9.96783 40.8673L9.98708 41.0581L10.0527 41.2204L10.1608 41.3503L9.75739 40.9469L9.64889 40.8166L9.5837 40.6543L9.56445 40.4639L9.59377 40.2491L9.67383 40.0159L16.8987 23.289L16.9578 23.1691L17.0269 23.0514L17.1048 22.9373L17.191 22.8266L17.2855 22.7203L17.3861 22.6192L17.4928 22.5238L17.6044 22.4346L17.7203 22.3523L17.8393 22.2779L17.9605 22.2114L18.0839 22.1537L18.2077 22.106L18.3311 22.0684L18.4536 22.0417L18.5743 22.0264Z" fill="#FDF5B7"/>
<path fill-rule="evenodd" clip-rule="evenodd" d="M18.9784 22.4298L32.2649 21.3876L32.8747 20.0047C33.359 18.9079 34.6431 17.9401 35.7268 17.8553L55.3587 16.3153C56.0089 16.2641 56.3029 16.7606 56.0128 17.4186L55.0503 19.6L54.7795 20.2125L47.3079 37.499C47.0235 38.1435 46.2697 38.7118 45.6331 38.7616L10.7193 41.5004C10.0823 41.5503 9.79399 41.0642 10.0784 40.4198L17.3032 23.692C17.5876 23.048 18.3414 22.4796 18.9784 22.4298Z" fill="#F3E27C"/>
<path fill-rule="evenodd" clip-rule="evenodd" d="M48.1283 35.6011L47.9384 36.0391L10.722 38.9589L10.9154 38.5201L48.1283 35.6011ZM47.7485 36.4779L10.5286 39.3982L10.3348 39.8361L47.5595 36.9158L47.7485 36.4779ZM47.3701 37.3546L10.1414 40.2754L10.078 40.4198L10.0758 40.4246L10.0736 40.4289L10.0714 40.4338L10.0697 40.4381L10.0675 40.4429L10.0658 40.4478L10.0649 40.4495L10.064 40.4526L10.0618 40.4574L10.0601 40.4622L10.0583 40.467L10.0566 40.4718L10.0548 40.4766L10.0526 40.4819L10.0509 40.4863L10.0487 40.4911L10.0469 40.4959L10.0452 40.5003L10.0434 40.5046L10.0417 40.5094L10.0404 40.5143L10.0386 40.5191L10.0369 40.5239L10.0356 40.5283L10.0338 40.5335L10.0321 40.5379L10.0316 40.5401L10.0308 40.5427L10.029 40.5475L10.0277 40.5523L10.0259 40.5571L10.0246 40.5615L10.0233 40.5659L10.022 40.5698L10.0216 40.5707L10.0203 40.5755L10.0185 40.5803L10.0172 40.5851L10.0159 40.5895L10.0146 40.5943L10.0132 40.5991L10.0115 40.6L10.0106 40.6048L10.0093 40.6096L10.008 40.614L10.0067 40.6188L10.0054 40.6236L10.0049 40.6249L10.0041 40.628L10.0032 40.6324L10.0023 40.6372L10.001 40.6416L9.99969 40.6459L9.99838 40.6508L9.9975 40.6543V40.6551L9.99619 40.6599L9.99488 40.6643L9.994 40.6687L9.99269 40.6731L9.99181 40.677L9.99094 40.6818L9.9905 40.6823L9.98963 40.6862L9.98875 40.691L9.98788 40.6954L9.987 40.6998L9.98613 40.7037L9.98438 40.7129L47.1399 37.7983C47.2051 37.7024 47.262 37.6023 47.3071 37.5008L47.3701 37.3546ZM46.7274 38.2519L10.0106 41.1324C10.0434 41.2182 10.0938 41.2917 10.1611 41.3503L10.1616 41.3508L10.1778 41.3639L10.1808 41.3661L10.1904 41.3739L10.1948 41.377L10.2106 41.3884L10.2123 41.3901L10.2136 41.391C10.2298 41.4011 10.2469 41.4116 10.2639 41.4212L10.2692 41.4238L10.2753 41.4269L10.2867 41.4326L10.2893 41.4339L10.2985 41.4383L10.3103 41.4435C10.3226 41.4483 10.3348 41.454 10.3475 41.4584L10.3532 41.4606L10.3602 41.4628L10.3729 41.4676L10.3755 41.468L10.386 41.4715L10.3987 41.475L10.4127 41.4789L10.4223 41.4816L10.4263 41.4824L10.4398 41.4855L10.4464 41.4873L10.4538 41.4886L10.4674 41.4912L10.4709 41.4921L10.4923 41.4951L10.4962 41.496H10.4967L10.5111 41.4982L10.5221 41.4991L10.526 41.4995L10.5413 41.5013L10.5488 41.5021L10.5571 41.5026L10.5724 41.5039L10.5759 41.5043H10.5877L10.6034 41.5048L10.6192 41.5052H10.6314H10.6354L10.6516 41.5048H10.6599H10.6682L10.6848 41.5043L10.6888 41.5039L10.7185 41.5017L45.6323 38.7625C45.9954 38.7328 46.3971 38.5354 46.7274 38.2519Z" fill="#E9D35E"/>
<path d="M41.0171 51.0112C47.6546 51.0112 53.0353 45.6305 53.0353 38.993C53.0353 32.3556 47.6546 26.9749 41.0171 26.9749C34.3797 26.9749 28.999 32.3556 28.999 38.993C28.999 45.6305 34.3797 51.0112 41.0171 51.0112Z" fill="#AB9BFA"/>
<path fill-rule="evenodd" clip-rule="evenodd" d="M41.0168 27.3503C47.4467 27.3503 52.6595 32.5631 52.6595 38.993C52.6595 45.4234 47.4467 50.6362 41.0168 50.6362C34.5864 50.6362 29.374 45.4234 29.374 38.993C29.3736 32.5631 34.5864 27.3503 41.0168 27.3503ZM41.0168 27.6478C34.7509 27.6478 29.6711 32.7272 29.6711 38.993C29.6711 45.2589 34.7505 50.3387 41.0168 50.3387C47.2826 50.3387 52.362 45.2593 52.362 38.993C52.362 32.7272 47.2826 27.6478 41.0168 27.6478Z" fill="white"/>
<path fill-rule="evenodd" clip-rule="evenodd" d="M42.4452 41.5528H39.0475V41.2116C39.0475 40.6328 39.1145 40.1633 39.2453 39.8037C39.3765 39.441 39.5686 39.112 39.8272 38.8132C40.0862 38.5144 40.6685 37.9903 41.5732 37.2378C42.0545 36.8449 42.2955 36.4822 42.2955 36.1563C42.2955 35.8273 42.198 35.5709 42.0029 35.3915C41.8108 35.2086 41.5155 35.1172 41.1222 35.1172C40.6956 35.1172 40.3452 35.2572 40.0678 35.5376C39.7904 35.815 39.6137 36.3054 39.5345 37.0006L36.0791 36.571C36.1981 35.3001 36.6614 34.2763 37.4686 33.5024C38.2762 32.7254 39.5135 32.3382 41.1799 32.3382C42.478 32.3382 43.5262 32.6094 44.3247 33.1519C45.4097 33.8834 45.9522 34.8613 45.9522 36.0836C45.9522 36.5898 45.8117 37.0772 45.5313 37.5493C45.2539 38.0187 44.6812 38.5944 43.8189 39.2739C43.2187 39.7494 42.8376 40.1331 42.6823 40.4228C42.5243 40.7119 42.4452 41.0864 42.4452 41.5528ZM38.9316 42.4484H42.5699V45.6478H38.9316V42.4484Z" fill="#101628"/>
</g>
<defs>
<clipPath id="clip0_73_1011">
<rect width="56" height="56" fill="white"/>
</clipPath>
</defs>
</svg>
