<svg width="328" height="224" viewBox="0 0 328 224" fill="none" xmlns="http://www.w3.org/2000/svg">
<rect width="328" height="224" rx="4" fill="#101628" fill-opacity="0.6"/>
<g clip-path="url(#clip0_7_51)">
<path d="M78.6621 170.027C78.6621 173.641 81.5836 176.571 85.1878 176.571H277.17C280.774 176.571 283.696 173.641 283.696 170.027V167.628L278.864 165.107H80.2448L78.6611 167.628V170.027H78.6621Z" fill="white"/>
<path d="M277.17 176.79H85.1871C81.4683 176.79 78.4424 173.756 78.4424 170.027C78.4424 169.906 78.5399 169.808 78.6614 169.808C78.7828 169.808 78.8804 169.906 78.8804 170.027C78.8804 173.515 81.7092 176.353 85.1871 176.353H277.169C280.647 176.353 283.476 173.516 283.476 170.027C283.476 169.906 283.574 169.808 283.695 169.808C283.815 169.808 283.914 169.906 283.914 170.027C283.914 173.757 280.888 176.79 277.169 176.79H277.17Z" fill="black"/>
<path d="M143.753 176.571H218.604V192.309C218.604 194.589 216.751 196.44 214.469 196.44H147.887C145.604 196.44 143.752 194.589 143.752 192.309V176.571H143.753Z" fill="white"/>
<path d="M214.469 196.659H147.887C145.486 196.659 143.533 194.708 143.533 192.309V176.571C143.533 176.45 143.631 176.352 143.752 176.352H218.603C218.724 176.352 218.822 176.45 218.822 176.571V192.309C218.822 194.708 216.869 196.659 214.468 196.659H214.469ZM143.972 176.79V192.309C143.972 194.466 145.729 196.221 147.888 196.221H214.47C216.629 196.221 218.386 194.466 218.386 192.309V176.79H143.973H143.972Z" fill="black"/>
<path d="M215.816 181.457H146.542C146.421 181.457 146.323 181.36 146.323 181.239C146.323 181.117 146.421 181.02 146.542 181.02H215.816C215.937 181.02 216.035 181.117 216.035 181.239C216.035 181.36 215.937 181.457 215.816 181.457Z" fill="black"/>
<path d="M83.5405 44.9842H278.817C281.51 44.9842 283.696 47.1682 283.696 49.8584V167.629H78.6621V49.8584C78.6621 47.1682 80.848 44.9842 83.5405 44.9842Z" fill="white"/>
<path d="M283.695 167.847H78.6623C78.5409 167.847 78.4434 167.749 78.4434 167.628V49.8584C78.4434 47.0499 80.7297 44.7654 83.5407 44.7654H278.817C281.628 44.7654 283.915 47.0499 283.915 49.8584V167.629C283.915 167.75 283.816 167.848 283.696 167.848L283.695 167.847ZM78.8813 167.41H283.477V49.8584C283.477 47.2915 281.387 45.203 278.817 45.203H83.5407C80.9716 45.203 78.8813 47.2915 78.8813 49.8584V167.411V167.41Z" fill="black"/>
<path d="M276.693 160.824H85.6653C85.5438 160.824 85.4463 160.726 85.4463 160.605V52.4949C85.4463 52.1051 85.7638 51.7888 86.153 51.7888H276.204C276.594 51.7888 276.911 52.1061 276.911 52.4949V160.606C276.911 160.727 276.813 160.825 276.692 160.825L276.693 160.824ZM85.8843 160.387H276.474V52.4949C276.474 52.3468 276.353 52.2264 276.205 52.2264H86.154C86.0057 52.2264 85.8852 52.3468 85.8852 52.4949V160.387H85.8843Z" fill="black"/>
<path d="M205.69 21.2188H293C297.293 21.2188 300.779 24.7017 300.779 28.9911V67.3593C300.779 86.9019 284.898 102.769 265.339 102.769H233.35C213.79 102.769 197.91 86.9019 197.91 67.3593V28.9911C197.91 24.7017 201.396 21.2188 205.689 21.2188H205.69Z" fill="white"/>
<path d="M265.34 102.988H233.351C213.689 102.988 197.692 87.0053 197.692 67.3593V28.9911C197.692 24.5843 201.281 21 205.69 21H293C297.411 21 300.998 24.5853 300.998 28.9911V67.3593C300.998 87.0043 285.002 102.988 265.339 102.988H265.34ZM205.69 21.4376C201.522 21.4376 198.13 24.826 198.13 28.9911V67.3593C198.13 86.7637 213.93 102.55 233.351 102.55H265.34C284.761 102.55 300.561 86.7637 300.561 67.3593V28.9911C300.561 24.826 297.17 21.4376 293.001 21.4376H205.691H205.69Z" fill="black"/>
<path d="M277.138 50.3H221.554C216.553 50.3 212.499 54.3506 212.499 59.3473V61.9351C212.499 66.9318 216.553 70.9824 221.554 70.9824H277.138C282.139 70.9824 286.193 66.9318 286.193 61.9351V59.3473C286.193 54.3506 282.139 50.3 277.138 50.3Z" fill="#E2EAFF"/>
<path d="M270.713 67.0351C274.119 67.0351 276.88 64.2766 276.88 60.8739C276.88 57.4712 274.119 54.7128 270.713 54.7128C267.308 54.7128 264.547 57.4712 264.547 60.8739C264.547 64.2766 267.308 67.0351 270.713 67.0351Z" fill="white"/>
<path d="M227.978 67.0351C231.383 67.0351 234.144 64.2766 234.144 60.8739C234.144 57.4712 231.383 54.7128 227.978 54.7128C224.572 54.7128 221.812 57.4712 221.812 60.8739C221.812 64.2766 224.572 67.0351 227.978 67.0351Z" fill="white"/>
<path d="M249.346 86.0645C249.224 86.0645 249.127 85.9671 249.127 85.8457C249.127 85.7244 249.224 85.6269 249.346 85.6269C255.585 85.6269 261.336 81.9819 264 76.3399C264.052 76.2305 264.182 76.1838 264.292 76.2355C264.401 76.2872 264.448 76.4175 264.396 76.5269C261.661 82.3201 255.753 86.0645 249.346 86.0645Z" fill="black"/>
<path d="M270.714 108.509H228.88C228.759 108.509 228.661 108.412 228.661 108.29C228.661 108.169 228.759 108.072 228.88 108.072H270.714C270.835 108.072 270.933 108.169 270.933 108.29C270.933 108.412 270.835 108.509 270.714 108.509Z" fill="black"/>
<path d="M192.177 126.716C187.618 126.716 183.922 123.023 183.922 118.468V96.5539C183.922 91.9989 187.618 88.3062 192.177 88.3062C196.735 88.3062 200.431 91.9989 200.431 96.5539V118.468C200.431 123.023 196.735 126.716 192.177 126.716Z" fill="#AB9BFA"/>
<path d="M192.177 129.817C186.117 129.817 181.187 124.891 181.187 118.836V110.855C181.187 110.734 181.284 110.636 181.406 110.636C181.527 110.636 181.624 110.734 181.624 110.855V118.836C181.624 124.649 186.359 129.379 192.177 129.379C197.995 129.379 202.729 124.649 202.729 118.836V110.855C202.729 110.734 202.826 110.636 202.948 110.636C203.069 110.636 203.167 110.734 203.167 110.855V118.836C203.167 124.891 198.236 129.817 192.177 129.817Z" fill="black"/>
<path d="M192.177 143.513C192.056 143.513 191.958 143.415 191.958 143.294V130.772C191.958 130.651 192.056 130.553 192.177 130.553C192.298 130.553 192.396 130.651 192.396 130.772V143.294C192.396 143.415 192.298 143.513 192.177 143.513Z" fill="black"/>
<path d="M197.321 146.847H187.032C186.911 146.847 186.813 146.749 186.813 146.628C186.813 146.506 186.911 146.409 187.032 146.409H197.321C197.442 146.409 197.54 146.506 197.54 146.628C197.54 146.749 197.442 146.847 197.321 146.847Z" fill="black"/>
<path d="M227.015 156.209C226.893 156.209 226.796 156.112 226.796 155.99V114.45C226.796 114.328 226.893 114.231 227.015 114.231C227.136 114.231 227.234 114.328 227.234 114.45V155.99C227.234 156.112 227.136 156.209 227.015 156.209Z" fill="black"/>
<path d="M230.894 148.202C230.772 148.202 230.675 148.105 230.675 147.983V122.459C230.675 122.337 230.772 122.24 230.894 122.24C231.015 122.24 231.113 122.337 231.113 122.459V147.983C231.113 148.105 231.015 148.202 230.894 148.202Z" fill="black"/>
<path d="M234.774 141.744C234.652 141.744 234.555 141.646 234.555 141.525V128.916C234.555 128.795 234.652 128.697 234.774 128.697C234.895 128.697 234.993 128.795 234.993 128.916V141.525C234.993 141.646 234.895 141.744 234.774 141.744Z" fill="black"/>
<path d="M238.653 137.657C238.531 137.657 238.434 137.56 238.434 137.438V133.004C238.434 132.882 238.531 132.785 238.653 132.785C238.774 132.785 238.872 132.882 238.872 133.004V137.438C238.872 137.56 238.774 137.657 238.653 137.657Z" fill="black"/>
<path d="M242.531 147.187C242.41 147.187 242.312 147.089 242.312 146.968V123.473C242.312 123.352 242.41 123.254 242.531 123.254C242.653 123.254 242.75 123.352 242.75 123.473V146.968C242.75 147.089 242.653 147.187 242.531 147.187Z" fill="black"/>
<path d="M223.136 148.202C223.015 148.202 222.917 148.105 222.917 147.983V122.459C222.917 122.337 223.015 122.24 223.136 122.24C223.257 122.24 223.355 122.337 223.355 122.459V147.983C223.355 148.105 223.257 148.202 223.136 148.202Z" fill="black"/>
<path d="M219.257 141.744C219.136 141.744 219.038 141.646 219.038 141.525V128.916C219.038 128.795 219.136 128.697 219.257 128.697C219.379 128.697 219.476 128.795 219.476 128.916V141.525C219.476 141.646 219.379 141.744 219.257 141.744Z" fill="black"/>
<path d="M215.378 137.657C215.257 137.657 215.159 137.56 215.159 137.438V133.004C215.159 132.882 215.257 132.785 215.378 132.785C215.5 132.785 215.597 132.882 215.597 133.004V137.438C215.597 137.56 215.5 137.657 215.378 137.657Z" fill="black"/>
<path d="M211.499 147.187C211.378 147.187 211.28 147.089 211.28 146.968V123.473C211.28 123.352 211.378 123.254 211.499 123.254C211.621 123.254 211.718 123.352 211.718 123.473V146.968C211.718 147.089 211.621 147.187 211.499 147.187Z" fill="black"/>
<path d="M246.411 156.209C246.29 156.209 246.192 156.112 246.192 155.99V114.45C246.192 114.328 246.29 114.231 246.411 114.231C246.533 114.231 246.63 114.328 246.63 114.45V155.99C246.63 156.112 246.533 156.209 246.411 156.209Z" fill="black"/>
<path d="M250.29 144.437C250.169 144.437 250.071 144.339 250.071 144.218V126.224C250.071 126.103 250.169 126.005 250.29 126.005C250.412 126.005 250.509 126.103 250.509 126.224V144.218C250.509 144.339 250.412 144.437 250.29 144.437Z" fill="black"/>
<path d="M254.169 138.515C254.048 138.515 253.95 138.418 253.95 138.296V132.143C253.95 132.022 254.048 131.924 254.169 131.924C254.291 131.924 254.388 132.022 254.388 132.143V138.296C254.388 138.418 254.291 138.515 254.169 138.515Z" fill="black"/>
<path d="M258.048 151.156C257.927 151.156 257.829 151.058 257.829 150.937V119.505C257.829 119.383 257.927 119.286 258.048 119.286C258.17 119.286 258.267 119.383 258.267 119.505V150.937C258.267 151.058 258.17 151.156 258.048 151.156Z" fill="black"/>
<path d="M261.927 144.807C261.806 144.807 261.708 144.709 261.708 144.588V125.852C261.708 125.731 261.806 125.633 261.927 125.633C262.048 125.633 262.146 125.731 262.146 125.852V144.588C262.146 144.709 262.048 144.807 261.927 144.807Z" fill="black"/>
<path d="M265.806 138.447C265.684 138.447 265.587 138.349 265.587 138.228V132.213C265.587 132.092 265.684 131.994 265.806 131.994C265.927 131.994 266.025 132.092 266.025 132.213V138.228C266.025 138.349 265.927 138.447 265.806 138.447Z" fill="black"/>
<path d="M125.866 106.998C125.745 106.998 125.647 106.901 125.647 106.78V64.4045C125.647 64.2832 125.745 64.1857 125.866 64.1857C125.988 64.1857 126.085 64.2832 126.085 64.4045V106.78C126.085 106.901 125.988 106.998 125.866 106.998Z" fill="black"/>
<path d="M130.548 101.779C130.427 101.779 130.329 101.682 130.329 101.56V70.7526C130.329 70.6313 130.427 70.5338 130.548 70.5338C130.67 70.5338 130.767 70.6313 130.767 70.7526V101.56C130.767 101.682 130.67 101.779 130.548 101.779Z" fill="black"/>
<path d="M135.231 93.985C135.109 93.985 135.012 93.8875 135.012 93.7662V78.5488C135.012 78.4275 135.109 78.33 135.231 78.33C135.352 78.33 135.45 78.4275 135.45 78.5488V93.7662C135.45 93.8875 135.352 93.985 135.231 93.985Z" fill="black"/>
<path d="M139.912 89.0521C139.791 89.0521 139.693 88.9546 139.693 88.8333V83.4807C139.693 83.3594 139.791 83.2619 139.912 83.2619C140.034 83.2619 140.131 83.3594 140.131 83.4807V88.8333C140.131 88.9546 140.034 89.0521 139.912 89.0521Z" fill="black"/>
<path d="M144.594 100.555C144.473 100.555 144.375 100.457 144.375 100.336V71.9779C144.375 71.8566 144.473 71.7591 144.594 71.7591C144.715 71.7591 144.813 71.8566 144.813 71.9779V100.336C144.813 100.457 144.715 100.555 144.594 100.555Z" fill="black"/>
<path d="M121.185 101.779C121.063 101.779 120.966 101.682 120.966 101.56V70.7526C120.966 70.6313 121.063 70.5338 121.185 70.5338C121.306 70.5338 121.404 70.6313 121.404 70.7526V101.56C121.404 101.682 121.306 101.779 121.185 101.779Z" fill="black"/>
<path d="M149.276 111.445C149.154 111.445 149.057 111.348 149.057 111.226V61.0887C149.057 60.9674 149.154 60.8699 149.276 60.8699C149.397 60.8699 149.495 60.9674 149.495 61.0887V111.226C149.495 111.348 149.397 111.445 149.276 111.445Z" fill="black"/>
<path d="M153.957 97.2351C153.836 97.2351 153.738 97.1377 153.738 97.0163V75.2977C153.738 75.1763 153.836 75.0789 153.957 75.0789C154.079 75.0789 154.176 75.1763 154.176 75.2977V97.0163C154.176 97.1377 154.079 97.2351 153.957 97.2351Z" fill="black"/>
<path d="M158.64 90.0894C158.518 90.0894 158.421 89.9919 158.421 89.8706V82.4444C158.421 82.3231 158.518 82.2256 158.64 82.2256C158.761 82.2256 158.859 82.3231 158.859 82.4444V89.8706C158.859 89.9919 158.761 90.0894 158.64 90.0894Z" fill="black"/>
<path d="M163.322 105.345C163.2 105.345 163.103 105.247 163.103 105.126V67.1882C163.103 67.0669 163.2 66.9694 163.322 66.9694C163.443 66.9694 163.54 67.0669 163.54 67.1882V105.126C163.54 105.247 163.443 105.345 163.322 105.345Z" fill="black"/>
<path d="M168.003 97.6827C167.882 97.6827 167.784 97.5852 167.784 97.4639V74.8501C167.784 74.7288 167.882 74.6313 168.003 74.6313C168.125 74.6313 168.222 74.7288 168.222 74.8501V97.4639C168.222 97.5852 168.125 97.6827 168.003 97.6827Z" fill="black"/>
<path d="M172.686 90.0058C172.564 90.0058 172.467 89.9084 172.467 89.787V82.5269C172.467 82.4056 172.564 82.3081 172.686 82.3081C172.807 82.3081 172.905 82.4056 172.905 82.5269V89.787C172.905 89.9084 172.807 90.0058 172.686 90.0058Z" fill="black"/>
<path d="M114.843 165.951L104.086 202.781H41.2263L45.7593 171.514L33.542 171.285L44.8555 142.451C48.5663 132.994 56.7662 126.02 66.7041 123.873C80.2791 120.94 99.3466 116.823 110.649 114.391C115.523 113.343 120.575 115.07 123.784 118.882C129.88 126.125 139.507 137.574 144.589 145.97L117.285 169.363L114.844 165.949L114.843 165.951Z" fill="#AB9BFA"/>
<path d="M67.8052 168.423C67.7783 168.423 67.7504 168.418 67.7236 168.407C67.6111 168.362 67.5563 168.235 67.6021 168.123L74.6624 150.536C74.7072 150.424 74.8346 150.369 74.947 150.415C75.0595 150.46 75.1143 150.587 75.0685 150.699L68.0082 168.286C67.9744 168.371 67.8918 168.423 67.8052 168.423Z" fill="black"/>
<path d="M179.135 130.827C180.326 125.007 175.57 126.313 175.57 126.313C176.388 121.539 171.712 121.137 171.712 121.137C176.719 115.184 178.078 109.244 175.028 109.572C172.674 109.826 162.087 120.991 157.376 126.076C155.885 127.686 154.63 129.498 153.652 131.462L144.342 150.142L142.349 147.892L118.498 168.327C124.172 176.22 131.034 181.624 137.062 185.231C145.28 190.148 155.929 187.107 160.344 178.614C168.448 163.023 175.486 142.273 175.486 142.273C179.18 142.684 179.561 136.922 179.561 136.922C182.514 131.515 179.137 130.828 179.137 130.828L179.135 130.827Z" fill="white"/>
<path d="M145.541 187.815C142.547 187.815 139.6 187.005 136.947 185.418C129.454 180.933 123.186 175.226 118.318 168.453C118.248 168.354 118.271 168.218 118.368 168.148C118.467 168.077 118.603 168.099 118.674 168.197C123.506 174.921 129.731 180.588 137.172 185.042C141.085 187.383 145.657 187.987 150.044 186.746C154.448 185.5 158.035 182.575 160.147 178.512C168.151 163.114 175.205 142.408 175.276 142.201C175.309 142.104 175.407 142.043 175.508 142.054C176.271 142.139 176.936 141.945 177.494 141.479C179.11 140.127 179.338 136.938 179.34 136.906C179.342 136.874 179.351 136.844 179.366 136.816C180.482 134.774 180.816 133.141 180.335 132.094C179.936 131.228 179.124 131.047 179.089 131.04C178.972 131.016 178.895 130.9 178.919 130.783C179.292 128.958 179.109 127.685 178.376 126.997C177.377 126.061 175.644 126.519 175.627 126.524C175.555 126.544 175.478 126.525 175.422 126.475C175.367 126.426 175.341 126.35 175.354 126.277C175.589 124.905 175.377 123.779 174.722 122.933C173.643 121.537 171.712 121.356 171.692 121.354C171.61 121.347 171.539 121.295 171.509 121.219C171.478 121.144 171.491 121.057 171.543 120.995C175.465 116.332 177.023 111.816 176.218 110.306C175.999 109.897 175.619 109.726 175.05 109.788C173.459 109.959 166.911 116.103 157.534 126.223C156.056 127.818 154.815 129.613 153.846 131.558L144.536 150.237C144.503 150.303 144.44 150.347 144.369 150.356C144.296 150.367 144.224 150.339 144.175 150.285L142.183 148.035C142.102 147.945 142.111 147.806 142.202 147.726C142.292 147.646 142.431 147.654 142.511 147.745L144.289 149.752L153.454 131.363C154.442 129.381 155.707 127.552 157.214 125.925C162.848 119.845 172.651 109.607 175.003 109.354C175.944 109.252 176.393 109.704 176.604 110.1C177.598 111.964 175.638 116.694 172.127 120.978C172.801 121.109 174.175 121.509 175.068 122.665C175.748 123.546 176.005 124.677 175.832 126.034C176.438 125.93 177.768 125.83 178.672 126.675C179.499 127.447 179.738 128.792 179.386 130.674C179.719 130.795 180.363 131.119 180.727 131.903C181.279 133.089 180.958 134.799 179.772 136.985C179.737 137.421 179.437 140.424 177.774 141.815C177.164 142.324 176.446 142.556 175.634 142.504C174.954 144.487 168.178 164.011 160.536 178.713C158.368 182.886 154.684 185.887 150.163 187.167C148.632 187.601 147.08 187.814 145.54 187.814L145.541 187.815Z" fill="black"/>
<path d="M139.861 160.517C139.832 160.517 139.803 160.511 139.776 160.501C139.665 160.454 139.613 160.325 139.66 160.214L143.717 150.608C143.764 150.496 143.892 150.445 144.004 150.492C144.115 150.538 144.167 150.667 144.12 150.778L140.063 160.384C140.028 160.468 139.946 160.517 139.861 160.517Z" fill="black"/>
<path d="M164.476 130.126C163.837 130.126 163.198 130.085 162.561 130.001C162.442 129.985 162.357 129.876 162.373 129.755C162.389 129.636 162.496 129.552 162.619 129.567C165.092 129.892 167.619 129.562 169.925 128.612C170.803 128.25 172.295 127.443 172.414 126.109C172.491 125.237 171.887 124.287 170.943 123.801C170.012 123.321 168.915 123.274 167.962 123.294C164.945 123.353 161.921 124.091 159.217 125.427C159.108 125.48 158.977 125.436 158.923 125.328C158.869 125.219 158.914 125.088 159.023 125.034C161.785 123.669 164.873 122.916 167.954 122.855C168.96 122.835 170.126 122.886 171.144 123.411C172.072 123.89 172.96 124.921 172.85 126.147C172.747 127.306 171.768 128.324 170.092 129.015C168.309 129.749 166.397 130.124 164.477 130.124L164.476 130.126Z" fill="black"/>
<path d="M166.831 136.833C166.235 136.833 165.699 136.6 165.38 136.196C164.985 135.697 164.972 135.019 164.997 134.552C165.095 132.743 165.818 131.006 167.033 129.661C167.115 129.571 167.253 129.565 167.343 129.645C167.432 129.726 167.439 129.864 167.359 129.954C166.211 131.225 165.527 132.867 165.435 134.576C165.415 134.972 165.421 135.543 165.724 135.926C165.976 136.243 166.445 136.423 166.942 136.393C167.438 136.364 167.908 136.161 168.343 135.947C171.845 134.219 174.497 130.769 175.265 126.943C175.289 126.825 175.404 126.747 175.523 126.772C175.641 126.796 175.718 126.911 175.694 127.029C174.9 130.986 172.157 134.553 168.536 136.34C168.083 136.564 167.543 136.797 166.967 136.831C166.922 136.834 166.876 136.835 166.831 136.835V136.833Z" fill="black"/>
<path d="M171.55 138.35C171.379 138.35 171.211 138.337 171.044 138.31C170.375 138.204 169.738 137.81 169.341 137.257C169.021 136.81 168.89 136.295 168.974 135.805C168.994 135.686 169.106 135.606 169.227 135.626C169.346 135.646 169.426 135.759 169.406 135.879C169.324 136.357 169.519 136.754 169.698 137.003C170.023 137.456 170.566 137.792 171.113 137.879C171.971 138.014 172.931 137.742 174.045 137.043C176.205 135.69 177.858 133.621 178.699 131.216C178.739 131.103 178.863 131.042 178.977 131.082C179.092 131.122 179.152 131.247 179.112 131.361C178.238 133.859 176.521 136.008 174.277 137.414C173.276 138.042 172.378 138.35 171.549 138.35H171.55Z" fill="black"/>
<path d="M174.379 140.389C173.867 140.389 173.433 140.276 173.084 140.051C172.523 139.69 172.141 138.887 172.5 138.221C172.558 138.115 172.69 138.075 172.797 138.132C172.903 138.19 172.943 138.322 172.886 138.429C172.656 138.854 172.93 139.431 173.321 139.683C173.704 139.93 174.234 140.007 174.899 139.911C176.575 139.67 178.132 138.529 178.866 137.005C178.919 136.896 179.05 136.85 179.158 136.902C179.267 136.955 179.314 137.085 179.261 137.195C178.454 138.872 176.806 140.079 174.963 140.344C174.758 140.373 174.564 140.388 174.379 140.388V140.389Z" fill="black"/>
<path d="M175.858 142.493C175.32 142.493 174.786 142.214 174.484 141.768C174.167 141.302 174.113 140.668 174.348 140.155C174.398 140.046 174.528 139.997 174.638 140.047C174.748 140.097 174.796 140.227 174.746 140.336C174.574 140.714 174.613 141.18 174.846 141.523C175.079 141.866 175.496 142.072 175.912 142.055C176.027 142.048 176.135 142.141 176.141 142.263C176.147 142.383 176.053 142.485 175.933 142.491C175.908 142.492 175.882 142.493 175.857 142.493H175.858Z" fill="black"/>
<path d="M109.759 180.792H93.9186C92.4146 180.792 91.3575 179.312 91.8462 177.891L102.781 146.085C103.085 145.201 103.918 144.607 104.854 144.607H120.694C122.198 144.607 123.255 146.087 122.767 147.508L111.831 179.314C111.528 180.198 110.695 180.792 109.759 180.792Z" fill="black"/>
<path d="M64.8974 170.034C64.8974 170.034 46.1992 169.975 33.5419 171.286L29.2538 182.244C25.3907 192.118 32.6779 202.782 43.2877 202.782C52.4153 202.782 61.3031 199.865 68.65 194.452C76.622 188.578 86.9321 180.66 93.6171 174.311C93.6171 174.311 108.212 172.877 108.212 171.048C108.212 169.219 101.539 168.672 101.539 168.672C101.539 168.672 112.76 169.457 112.77 167.601C112.78 165.744 104.086 164.296 104.086 164.296C104.086 164.296 112.659 164.325 113.186 162.639C113.714 160.953 105.841 160.3 105.841 160.3C105.841 160.3 109.617 159.445 109.634 158.436C109.651 157.426 105.048 156.065 91.9668 157.344C78.8855 158.624 64.8974 170.034 64.8974 170.034Z" fill="white"/>
<path d="M43.2876 203C38.2321 203 33.513 200.51 30.6622 196.339C27.8114 192.168 27.2092 186.869 29.0497 182.164L33.3378 171.207C33.3816 171.094 33.509 171.039 33.6215 171.082C33.7339 171.126 33.7897 171.253 33.7459 171.366L29.4578 182.324C27.6432 186.961 28.2136 191.98 31.0245 196.092C33.8345 200.204 38.3047 202.563 43.2886 202.563C43.41 202.563 43.5076 202.661 43.5076 202.782C43.5076 202.904 43.41 203.001 43.2886 203.001L43.2876 203Z" fill="black"/>
<path d="M41.7671 183.939C41.6924 183.939 41.6187 183.9 41.5779 183.831C41.5172 183.727 41.5511 183.594 41.6556 183.532L63.8506 170.485C63.9551 170.423 64.0895 170.458 64.1502 170.562C64.2109 170.667 64.1771 170.8 64.0725 170.862L41.8775 183.909C41.8427 183.93 41.8049 183.939 41.7671 183.939Z" fill="black"/>
<path d="M103.501 164.357C103.501 164.357 103.494 164.357 103.491 164.357L99.5188 164.175C99.3984 164.169 99.3048 164.068 99.3098 163.947C99.3157 163.826 99.4163 163.73 99.5387 163.738L103.511 163.92C103.632 163.926 103.725 164.027 103.72 164.148C103.715 164.266 103.618 164.357 103.501 164.357Z" fill="black"/>
<path d="M98.2972 160.724C98.1867 160.724 98.0912 160.641 98.0792 160.527C98.0673 160.407 98.1549 160.3 98.2753 160.288C100.625 160.049 103.013 159.955 105.376 160.004C105.497 160.007 105.593 160.107 105.59 160.228C105.587 160.347 105.49 160.442 105.371 160.442H105.366C103.021 160.391 100.651 160.486 98.3191 160.722C98.3111 160.722 98.3042 160.723 98.2972 160.723V160.724Z" fill="black"/>
<path d="M87.5273 103.113L79.7683 120.845L73.5303 122.4C73.5303 122.4 86.6086 130.85 93.8121 128.994C100.849 127.18 102.588 120.533 101.487 116.367L96.6281 117.282L98.6606 110.246C98.6606 110.246 95.1599 98.7429 87.5283 103.115L87.5273 103.113Z" fill="white"/>
<path d="M73.53 122.618C73.4314 122.618 73.3429 122.551 73.318 122.452C73.2891 122.334 73.3598 122.216 73.4772 122.186L79.6108 120.657L87.327 103.024C87.3459 102.982 87.3777 102.946 87.4185 102.922C89.3317 101.826 91.1632 101.612 92.8613 102.285C96.9145 103.892 98.7917 109.923 98.8694 110.179C98.8813 110.22 98.8823 110.263 98.8694 110.303L96.9354 116.999L101.444 116.149C101.564 116.127 101.678 116.205 101.7 116.323C101.723 116.442 101.645 116.557 101.526 116.579L96.6676 117.494C96.593 117.508 96.5163 117.482 96.4646 117.426C96.4138 117.371 96.3949 117.291 96.4158 117.218L98.4294 110.246C98.2214 109.607 96.3461 104.136 92.697 102.691C91.1472 102.078 89.465 102.27 87.6972 103.266L79.9671 120.931C79.9402 120.994 79.8855 121.039 79.8198 121.055L73.5817 122.61C73.5638 122.614 73.5459 122.616 73.529 122.616L73.53 122.618Z" fill="black"/>
<path d="M94.8392 122.618C94.8163 122.618 94.7934 122.615 94.7705 122.607C94.656 122.569 94.5933 122.446 94.6311 122.33L96.0535 117.991C96.0914 117.877 96.2138 117.813 96.3303 117.852C96.4447 117.89 96.5074 118.013 96.4696 118.128L95.0472 122.467C95.0174 122.56 94.9317 122.618 94.8392 122.618Z" fill="black"/>
<path d="M85.2221 97.7185C85.2221 97.7185 78.9372 88.6503 80.069 86.5648C81.2007 84.4792 83.6046 85.3365 83.6046 85.3365C83.6046 85.3365 92.9283 68.5995 97.5966 75.2261C97.5966 75.2261 100.43 70.1927 104.55 72.8173C108.669 75.4409 107.523 78.702 104.883 80.875C104.883 80.875 107.541 85.801 105.244 88.2952C102.946 90.7895 105.575 96.7269 107.345 97.4281C107.345 97.4281 112.647 109.031 107.496 112.323C102.345 115.615 92.2176 116.177 89.4644 103.338L85.2231 97.7185H85.2221Z" fill="black"/>
<path d="M88.4527 98.4753L89.464 103.338C89.464 103.338 84.4423 104.805 82.4625 100.851C80.6459 97.2252 83.8859 93.8686 87.3229 96.6195C87.9052 97.0859 88.3024 97.7453 88.4537 98.4753H88.4527Z" fill="white"/>
<path d="M87.3726 103.813C85.6924 103.813 83.4498 103.315 82.2653 100.949C81.3485 99.1188 81.6243 97.0999 82.9372 96.0397C83.9017 95.26 85.5968 94.9586 87.4582 96.4484C88.0743 96.9417 88.5033 97.6459 88.6666 98.4306L89.6779 103.293C89.7008 103.404 89.6341 103.516 89.5246 103.547C89.5027 103.553 88.583 103.813 87.3726 103.813ZM84.7836 95.8318C84.2073 95.8318 83.6678 96.0128 83.2129 96.3808C82.2713 97.1416 81.6959 98.8343 82.6575 100.754C84.3387 104.109 88.2724 103.402 89.2071 103.178L88.2386 98.5201C88.0962 97.8338 87.722 97.2202 87.1855 96.7906C86.3921 96.1551 85.555 95.8318 84.7846 95.8318H84.7836Z" fill="black"/>
<path d="M88.0329 101.882C87.9583 101.882 87.8866 101.844 87.8448 101.775C87.2157 100.732 86.0223 100.052 84.8039 100.043C84.6825 100.043 84.5859 99.9433 84.5869 99.8229C84.5869 99.7026 84.6855 99.6061 84.8059 99.6061H84.8079C86.1765 99.6161 87.5163 100.379 88.2211 101.55C88.2838 101.654 88.2499 101.788 88.1464 101.851C88.1116 101.872 88.0717 101.883 88.0339 101.883L88.0329 101.882Z" fill="black"/>
<path d="M105.256 86.5249C105.256 86.5249 97.9582 87.4419 95.1463 89.4071C93.6781 90.4335 93.0251 92.2753 93.5178 93.9959C94.0125 95.7254 94.6755 97.8358 95.3523 99.3893C95.8142 100.449 96.9429 101.056 98.0836 100.856C100.421 100.448 104.552 99.4798 107.345 97.4261L105.257 86.524L105.256 86.5249Z" fill="white"/>
<path d="M97.6458 101.115C96.5758 101.115 95.5903 100.486 95.1504 99.4778C94.4457 97.8607 93.7579 95.6369 93.3059 94.0576C92.7884 92.2475 93.4772 90.3072 95.02 89.2291C97.8439 87.2549 104.928 86.3469 105.229 86.3091C105.347 86.2962 105.45 86.3718 105.471 86.4852L107.559 97.3873C107.575 97.4698 107.542 97.5544 107.473 97.6041C104.621 99.7006 100.389 100.678 98.1196 101.074C97.9604 101.102 97.8021 101.115 97.6448 101.115H97.6458ZM105.08 86.7696C103.884 86.9357 97.7473 87.8566 95.2718 89.5871C93.8823 90.5588 93.2612 92.3072 93.728 93.9372C94.1759 95.5046 94.8568 97.7075 95.5525 99.3028C95.9756 100.273 97.0018 100.825 98.0459 100.642C100.248 100.259 104.325 99.3207 107.104 97.3316L105.081 86.7696H105.08Z" fill="black"/>
<path d="M42.7462 40.9185C44.6609 40.9185 46.2131 39.3619 46.2131 37.4416C46.2131 35.5214 44.6609 33.9648 42.7462 33.9648C40.8315 33.9648 39.2793 35.5214 39.2793 37.4416C39.2793 39.3619 40.8315 40.9185 42.7462 40.9185Z" fill="#E2EAFF"/>
<path d="M52.8634 40.9185C54.7781 40.9185 56.3303 39.3619 56.3303 37.4416C56.3303 35.5214 54.7781 33.9648 52.8634 33.9648C50.9487 33.9648 49.3965 35.5214 49.3965 37.4416C49.3965 39.3619 50.9487 40.9185 52.8634 40.9185Z" fill="#E2EAFF"/>
<path d="M62.9816 40.9185C64.8963 40.9185 66.4485 39.3619 66.4485 37.4416C66.4485 35.5214 64.8963 33.9648 62.9816 33.9648C61.0668 33.9648 59.5146 35.5214 59.5146 37.4416C59.5146 39.3619 61.0668 40.9185 62.9816 40.9185Z" fill="#E2EAFF"/>
<path d="M71.3358 104.187H52.8635C52.7421 104.187 52.6445 104.089 52.6445 103.968V45.2478C52.6445 45.1264 52.7421 45.029 52.8635 45.029C52.985 45.029 53.0825 45.1264 53.0825 45.2478V103.749H71.3358C71.4572 103.749 71.5548 103.847 71.5548 103.968C71.5548 104.089 71.4572 104.187 71.3358 104.187Z" fill="black"/>
</g>
<defs>
<clipPath id="clip0_7_51">
<rect width="273" height="182" fill="white" transform="translate(28 21)"/>
</clipPath>
</defs>
</svg>
