<svg width="150" height="24" viewBox="0 0 150 24" fill="none" xmlns="http://www.w3.org/2000/svg">
<path fill-rule="evenodd" clip-rule="evenodd" d="M19.2313 1.3337C19.1537 0.992276 18.8501 0.75 18.5 0.75C18.1499 0.75 17.8463 0.992276 17.7687 1.3337L17.3537 3.1586C17.1618 4.00268 16.5027 4.66178 15.6586 4.8537L13.8337 5.26867C13.4923 5.3463 13.25 5.64986 13.25 6C13.25 6.35014 13.4923 6.6537 13.8337 6.73132L15.6586 7.1463C16.5027 7.33823 17.1618 7.99732 17.3537 8.84141L17.7687 10.6663C17.8463 11.0077 18.1499 11.25 18.5 11.25C18.8501 11.25 19.1537 11.0077 19.2313 10.6663L19.6463 8.84141C19.8382 7.99732 20.4973 7.33823 21.3414 7.1463L23.1663 6.73132C23.5077 6.6537 23.75 6.35014 23.75 6C23.75 5.64986 23.5077 5.3463 23.1663 5.26867L21.3414 4.8537C20.4973 4.66178 19.8382 4.00268 19.6463 3.1586L19.2313 1.3337Z" fill="#AB9BFA"/>
<path d="M8.75 6C9.16422 6 9.5 6.33578 9.5 6.75V22.5C9.5 22.9142 9.16422 23.25 8.75 23.25C8.33578 23.25 8 22.9142 8 22.5V6.75C8 6.33578 8.33578 6 8.75 6Z" fill="#F5F5F5"/>
<path d="M2.75 8.625C2.75 8.21078 2.41421 7.875 2 7.875C1.58579 7.875 1.25 8.21078 1.25 8.625V20.625C1.25 21.0392 1.58579 21.375 2 21.375C2.41421 21.375 2.75 21.0392 2.75 20.625V8.625Z" fill="#F5F5F5"/>
<path d="M6.125 10.125C6.125 9.71078 5.78922 9.375 5.375 9.375C4.96078 9.375 4.625 9.71078 4.625 10.125V19.125C4.625 19.5392 4.96078 19.875 5.375 19.875C5.78922 19.875 6.125 19.5392 6.125 19.125V10.125Z" fill="#F5F5F5"/>
<path d="M12.875 9C12.875 8.58578 12.5392 8.25 12.125 8.25C11.7108 8.25 11.375 8.58578 11.375 9V20.25C11.375 20.6642 11.7108 21 12.125 21C12.5392 21 12.875 20.6642 12.875 20.25V9Z" fill="#F5F5F5"/>
<path d="M15.5 10.875C15.9142 10.875 16.25 11.2108 16.25 11.625V17.625C16.25 18.0392 15.9142 18.375 15.5 18.375C15.0858 18.375 14.75 18.0392 14.75 17.625V11.625C14.75 11.2108 15.0858 10.875 15.5 10.875Z" fill="#F5F5F5"/>
<path d="M39.3262 13.3145H35.6641V11.2051H39.3262C39.9251 11.2051 40.4102 11.1074 40.7812 10.9121C41.1589 10.7103 41.4355 10.4368 41.6113 10.0918C41.7871 9.74023 41.875 9.33984 41.875 8.89062C41.875 8.45443 41.7871 8.04753 41.6113 7.66992C41.4355 7.29232 41.1589 6.98633 40.7812 6.75195C40.4102 6.51758 39.9251 6.40039 39.3262 6.40039H36.543V18.5H33.8574V4.28125H39.3262C40.4329 4.28125 41.377 4.47982 42.1582 4.87695C42.946 5.26758 43.5449 5.8112 43.9551 6.50781C44.3717 7.19792 44.5801 7.98568 44.5801 8.87109C44.5801 9.78906 44.3717 10.5801 43.9551 11.2441C43.5449 11.9082 42.946 12.4193 42.1582 12.7773C41.377 13.1354 40.4329 13.3145 39.3262 13.3145ZM49.2285 7.93359V18.5H46.6406V7.93359H49.2285ZM46.4648 5.16992C46.4648 4.78581 46.5951 4.4668 46.8555 4.21289C47.1224 3.95898 47.4805 3.83203 47.9297 3.83203C48.3789 3.83203 48.7337 3.95898 48.9941 4.21289C49.2611 4.4668 49.3945 4.78581 49.3945 5.16992C49.3945 5.54753 49.2611 5.86328 48.9941 6.11719C48.7337 6.37109 48.3789 6.49805 47.9297 6.49805C47.4805 6.49805 47.1224 6.37109 46.8555 6.11719C46.5951 5.86328 46.4648 5.54753 46.4648 5.16992ZM56.6895 7.93359V9.78906H50.6348V7.93359H56.6895ZM52.2559 5.33594H54.8438V15.4531C54.8438 15.7656 54.8861 16.0065 54.9707 16.1758C55.0553 16.3451 55.1823 16.459 55.3516 16.5176C55.5208 16.5762 55.7227 16.6055 55.957 16.6055C56.1263 16.6055 56.2826 16.5957 56.4258 16.5762C56.569 16.5566 56.6895 16.5371 56.7871 16.5176L56.7969 18.4512C56.582 18.5228 56.3379 18.5814 56.0645 18.627C55.7975 18.6725 55.4948 18.6953 55.1562 18.6953C54.5768 18.6953 54.069 18.5977 53.6328 18.4023C53.1966 18.2005 52.8581 17.8783 52.6172 17.4355C52.3763 16.9863 52.2559 16.3939 52.2559 15.6582V5.33594ZM62.8809 16.6641C63.252 16.6641 63.584 16.5924 63.877 16.4492C64.1699 16.306 64.4076 16.1042 64.5898 15.8438C64.7721 15.5833 64.873 15.2806 64.8926 14.9355H67.3242C67.2982 15.6517 67.0833 16.293 66.6797 16.8594C66.2826 17.4258 65.7552 17.875 65.0977 18.207C64.4466 18.5326 63.7207 18.6953 62.9199 18.6953C62.1126 18.6953 61.3997 18.5586 60.7812 18.2852C60.1628 18.0117 59.6419 17.6309 59.2188 17.1426C58.8021 16.6543 58.4896 16.0879 58.2812 15.4434C58.0729 14.7988 57.9688 14.1087 57.9688 13.373V13.0605C57.9688 12.3249 58.0729 11.6348 58.2812 10.9902C58.4961 10.3457 58.8118 9.7793 59.2285 9.29102C59.6452 8.80273 60.1595 8.42188 60.7715 8.14844C61.39 7.875 62.1029 7.73828 62.9102 7.73828C63.763 7.73828 64.515 7.9043 65.166 8.23633C65.8236 8.56836 66.3411 9.03711 66.7188 9.64258C67.0964 10.248 67.2982 10.9609 67.3242 11.7812H64.8926C64.873 11.4036 64.7786 11.0651 64.6094 10.7656C64.4466 10.4661 64.2188 10.2253 63.9258 10.043C63.6328 9.86068 63.2812 9.76953 62.8711 9.76953C62.4284 9.76953 62.0573 9.86068 61.7578 10.043C61.4583 10.2253 61.2174 10.4759 61.0352 10.7949C60.8594 11.1074 60.7324 11.459 60.6543 11.8496C60.5827 12.2337 60.5469 12.6374 60.5469 13.0605V13.373C60.5469 13.8027 60.5827 14.2161 60.6543 14.6133C60.7324 15.0039 60.8594 15.3555 61.0352 15.668C61.2174 15.974 61.4583 16.2181 61.7578 16.4004C62.0573 16.5762 62.4316 16.6641 62.8809 16.6641ZM71.6016 3.5V18.5H69.0137V3.5H71.6016ZM71.1914 12.8359H70.4297C70.4297 12.1003 70.5273 11.4232 70.7227 10.8047C70.918 10.1862 71.1947 9.64909 71.5527 9.19336C71.9108 8.73112 72.3372 8.37305 72.832 8.11914C73.3333 7.86523 73.8867 7.73828 74.4922 7.73828C75.013 7.73828 75.485 7.81315 75.9082 7.96289C76.3379 8.10612 76.7057 8.33724 77.0117 8.65625C77.3177 8.97526 77.5521 9.39193 77.7148 9.90625C77.8841 10.4141 77.9688 11.0326 77.9688 11.7617V18.5H75.3711V11.7422C75.3711 11.2539 75.2995 10.8698 75.1562 10.5898C75.013 10.3034 74.8079 10.0983 74.541 9.97461C74.2806 9.85091 73.9583 9.78906 73.5742 9.78906C73.1576 9.78906 72.7995 9.87044 72.5 10.0332C72.2005 10.1895 71.9531 10.4076 71.7578 10.6875C71.569 10.9674 71.4258 11.2897 71.3281 11.6543C71.237 12.0189 71.1914 12.4128 71.1914 12.8359ZM87.8027 9.96484V22.5625H85.2148V7.93359H87.5684L87.8027 9.96484ZM94.7852 13.1191V13.3242C94.7852 14.0924 94.6842 14.8053 94.4824 15.4629C94.2871 16.1139 94.0039 16.6803 93.6328 17.1621C93.2617 17.6439 92.8092 18.0215 92.2754 18.2949C91.748 18.5618 91.1523 18.6953 90.4883 18.6953C89.8372 18.6953 89.2708 18.5716 88.7891 18.3242C88.3073 18.0703 87.9004 17.7155 87.5684 17.2598C87.2363 16.7975 86.9694 16.2604 86.7676 15.6484C86.5723 15.0299 86.4258 14.3561 86.3281 13.627V12.9727C86.4258 12.1979 86.5723 11.4915 86.7676 10.8535C86.9694 10.2155 87.2363 9.66536 87.5684 9.20312C87.9004 8.73438 88.304 8.37305 88.7793 8.11914C89.2611 7.86523 89.8242 7.73828 90.4688 7.73828C91.1393 7.73828 91.7383 7.86849 92.2656 8.12891C92.7995 8.38281 93.2552 8.7474 93.6328 9.22266C94.0104 9.69141 94.2969 10.2578 94.4922 10.9219C94.6875 11.5794 94.7852 12.3118 94.7852 13.1191ZM92.1973 13.3242V13.1191C92.1973 12.6439 92.1452 12.2044 92.041 11.8008C91.9368 11.3971 91.7839 11.0456 91.582 10.7461C91.3802 10.4401 91.1296 10.2057 90.8301 10.043C90.5306 9.8737 90.1823 9.78906 89.7852 9.78906C89.388 9.78906 89.043 9.85742 88.75 9.99414C88.4635 10.1243 88.2227 10.3099 88.0273 10.5508C87.832 10.7917 87.6823 11.0781 87.5781 11.4102C87.474 11.7357 87.4056 12.097 87.373 12.4941V14.1152C87.4316 14.597 87.5488 15.0299 87.7246 15.4141C87.9069 15.7982 88.1673 16.1042 88.5059 16.332C88.8444 16.5534 89.2773 16.6641 89.8047 16.6641C90.2018 16.6641 90.5501 16.5762 90.8496 16.4004C91.1491 16.2246 91.3997 15.9837 91.6016 15.6777C91.8034 15.3717 91.9531 15.0202 92.0508 14.623C92.1484 14.2194 92.1973 13.7865 92.1973 13.3242ZM101.611 18.6953C100.791 18.6953 100.052 18.5651 99.3945 18.3047C98.737 18.0443 98.1738 17.6797 97.7051 17.2109C97.2363 16.7422 96.875 16.1921 96.6211 15.5605C96.3737 14.929 96.25 14.2422 96.25 13.5V13.0996C96.25 12.2988 96.3672 11.5697 96.6016 10.9121C96.8359 10.2546 97.168 9.69141 97.5977 9.22266C98.0273 8.7474 98.5417 8.38281 99.1406 8.12891C99.7396 7.86849 100.4 7.73828 101.123 7.73828C101.872 7.73828 102.533 7.85872 103.105 8.09961C103.678 8.34049 104.157 8.68229 104.541 9.125C104.925 9.5612 105.215 10.0853 105.41 10.6973C105.605 11.3092 105.703 11.9896 105.703 12.7383V13.998H97.4219V12.2207H103.164V11.9668C103.164 11.5566 103.096 11.1855 102.959 10.8535C102.822 10.5215 102.604 10.2578 102.305 10.0625C102.005 9.86719 101.611 9.76953 101.123 9.76953C100.739 9.76953 100.404 9.85091 100.117 10.0137C99.8307 10.1764 99.5931 10.4043 99.4043 10.6973C99.2155 10.9902 99.0755 11.3418 98.9844 11.752C98.8932 12.1556 98.8477 12.6048 98.8477 13.0996V13.5C98.8477 13.9557 98.9095 14.3757 99.0332 14.7598C99.1634 15.1439 99.3555 15.4792 99.6094 15.7656C99.8633 16.0521 100.186 16.2734 100.576 16.4297C100.967 16.5859 101.423 16.6641 101.943 16.6641C102.458 16.6641 102.965 16.5924 103.467 16.4492C103.968 16.2995 104.391 16.1204 104.736 15.9121L105.264 17.6504C104.919 17.8978 104.44 18.1354 103.828 18.3633C103.216 18.5846 102.477 18.6953 101.611 18.6953ZM110.01 10.0918V18.5H107.432V7.93359H109.873L110.01 10.0918ZM113.223 7.86523L113.184 10.2676C113.04 10.2415 112.878 10.222 112.695 10.209C112.52 10.196 112.354 10.1895 112.197 10.1895C111.8 10.1895 111.452 10.2448 111.152 10.3555C110.853 10.4596 110.602 10.6126 110.4 10.8145C110.205 11.0163 110.055 11.2637 109.951 11.5566C109.847 11.8431 109.788 12.1686 109.775 12.5332L109.219 12.4648C109.219 11.7943 109.287 11.1725 109.424 10.5996C109.561 10.0267 109.759 9.52539 110.02 9.0957C110.28 8.66602 110.605 8.33398 110.996 8.09961C111.393 7.85872 111.849 7.73828 112.363 7.73828C112.507 7.73828 112.66 7.7513 112.822 7.77734C112.992 7.79688 113.125 7.82617 113.223 7.86523ZM118.193 18.5H115.596V6.95703C115.596 6.16276 115.749 5.49544 116.055 4.95508C116.361 4.4082 116.797 3.99479 117.363 3.71484C117.93 3.4349 118.597 3.29492 119.365 3.29492C119.619 3.29492 119.86 3.3112 120.088 3.34375C120.322 3.3763 120.553 3.42188 120.781 3.48047L120.732 5.44336C120.609 5.41081 120.472 5.38802 120.322 5.375C120.179 5.36198 120.02 5.35547 119.844 5.35547C119.492 5.35547 119.193 5.41732 118.945 5.54102C118.698 5.66471 118.509 5.84701 118.379 6.08789C118.255 6.32227 118.193 6.61198 118.193 6.95703V18.5ZM120.332 7.93359V9.78906H114.004V7.93359H120.332ZM126.865 18.6953C126.045 18.6953 125.306 18.5651 124.648 18.3047C123.991 18.0443 123.428 17.6797 122.959 17.2109C122.49 16.7422 122.129 16.1921 121.875 15.5605C121.628 14.929 121.504 14.2422 121.504 13.5V13.0996C121.504 12.2988 121.621 11.5697 121.855 10.9121C122.09 10.2546 122.422 9.69141 122.852 9.22266C123.281 8.7474 123.796 8.38281 124.395 8.12891C124.993 7.86849 125.654 7.73828 126.377 7.73828C127.126 7.73828 127.786 7.85872 128.359 8.09961C128.932 8.34049 129.411 8.68229 129.795 9.125C130.179 9.5612 130.469 10.0853 130.664 10.6973C130.859 11.3092 130.957 11.9896 130.957 12.7383V13.998H122.676V12.2207H128.418V11.9668C128.418 11.5566 128.35 11.1855 128.213 10.8535C128.076 10.5215 127.858 10.2578 127.559 10.0625C127.259 9.86719 126.865 9.76953 126.377 9.76953C125.993 9.76953 125.658 9.85091 125.371 10.0137C125.085 10.1764 124.847 10.4043 124.658 10.6973C124.469 10.9902 124.329 11.3418 124.238 11.752C124.147 12.1556 124.102 12.6048 124.102 13.0996V13.5C124.102 13.9557 124.163 14.3757 124.287 14.7598C124.417 15.1439 124.609 15.4792 124.863 15.7656C125.117 16.0521 125.439 16.2734 125.83 16.4297C126.221 16.5859 126.676 16.6641 127.197 16.6641C127.712 16.6641 128.219 16.5924 128.721 16.4492C129.222 16.2995 129.645 16.1204 129.99 15.9121L130.518 17.6504C130.173 17.8978 129.694 18.1354 129.082 18.3633C128.47 18.5846 127.731 18.6953 126.865 18.6953ZM137.158 16.6641C137.529 16.6641 137.861 16.5924 138.154 16.4492C138.447 16.306 138.685 16.1042 138.867 15.8438C139.049 15.5833 139.15 15.2806 139.17 14.9355H141.602C141.576 15.6517 141.361 16.293 140.957 16.8594C140.56 17.4258 140.033 17.875 139.375 18.207C138.724 18.5326 137.998 18.6953 137.197 18.6953C136.39 18.6953 135.677 18.5586 135.059 18.2852C134.44 18.0117 133.919 17.6309 133.496 17.1426C133.079 16.6543 132.767 16.0879 132.559 15.4434C132.35 14.7988 132.246 14.1087 132.246 13.373V13.0605C132.246 12.3249 132.35 11.6348 132.559 10.9902C132.773 10.3457 133.089 9.7793 133.506 9.29102C133.923 8.80273 134.437 8.42188 135.049 8.14844C135.667 7.875 136.38 7.73828 137.188 7.73828C138.04 7.73828 138.792 7.9043 139.443 8.23633C140.101 8.56836 140.618 9.03711 140.996 9.64258C141.374 10.248 141.576 10.9609 141.602 11.7812H139.17C139.15 11.4036 139.056 11.0651 138.887 10.7656C138.724 10.4661 138.496 10.2253 138.203 10.043C137.91 9.86068 137.559 9.76953 137.148 9.76953C136.706 9.76953 136.335 9.86068 136.035 10.043C135.736 10.2253 135.495 10.4759 135.312 10.7949C135.137 11.1074 135.01 11.459 134.932 11.8496C134.86 12.2337 134.824 12.6374 134.824 13.0605V13.373C134.824 13.8027 134.86 14.2161 134.932 14.6133C135.01 15.0039 135.137 15.3555 135.312 15.668C135.495 15.974 135.736 16.2181 136.035 16.4004C136.335 16.5762 136.709 16.6641 137.158 16.6641ZM148.35 7.93359V9.78906H142.295V7.93359H148.35ZM143.916 5.33594H146.504V15.4531C146.504 15.7656 146.546 16.0065 146.631 16.1758C146.715 16.3451 146.842 16.459 147.012 16.5176C147.181 16.5762 147.383 16.6055 147.617 16.6055C147.786 16.6055 147.943 16.5957 148.086 16.5762C148.229 16.5566 148.35 16.5371 148.447 16.5176L148.457 18.4512C148.242 18.5228 147.998 18.5814 147.725 18.627C147.458 18.6725 147.155 18.6953 146.816 18.6953C146.237 18.6953 145.729 18.5977 145.293 18.4023C144.857 18.2005 144.518 17.8783 144.277 17.4355C144.036 16.9863 143.916 16.3939 143.916 15.6582V5.33594Z" fill="#F5F5F5"/>
</svg>
